<mxfile host="Electron" agent="Mozilla/5.0 (Macintosh; Intel Mac OS X 10_15_7) AppleWebKit/537.36 (KHTML, like Gecko) draw.io/26.0.4 Chrome/128.0.6613.186 Electron/32.2.5 Safari/537.36" version="26.0.4">
  <diagram id="C5RBs43oDa-KdzZeNtuy" name="Page-1">
    <mxGraphModel dx="1228" dy="893" grid="1" gridSize="10" guides="1" tooltips="1" connect="1" arrows="1" fold="1" page="1" pageScale="1" pageWidth="827" pageHeight="1169" math="0" shadow="0">
      <root>
        <mxCell id="WIyWlLk6GJQsqaUBKTNV-0" />
        <mxCell id="WIyWlLk6GJQsqaUBKTNV-1" parent="WIyWlLk6GJQsqaUBKTNV-0" />
        <mxCell id="WIyWlLk6GJQsqaUBKTNV-2" value="" style="rounded=0;html=1;jettySize=auto;orthogonalLoop=1;fontSize=11;endArrow=block;endFill=0;endSize=8;strokeWidth=1;shadow=0;labelBackgroundColor=none;edgeStyle=orthogonalEdgeStyle;" parent="WIyWlLk6GJQsqaUBKTNV-1" source="WIyWlLk6GJQsqaUBKTNV-3" target="WIyWlLk6GJQsqaUBKTNV-6" edge="1">
          <mxGeometry relative="1" as="geometry" />
        </mxCell>
        <mxCell id="WIyWlLk6GJQsqaUBKTNV-3" value="login" style="rounded=1;whiteSpace=wrap;html=1;fontSize=12;glass=0;strokeWidth=1;shadow=0;" parent="WIyWlLk6GJQsqaUBKTNV-1" vertex="1">
          <mxGeometry x="220" y="40" width="120" height="40" as="geometry" />
        </mxCell>
        <mxCell id="WIyWlLk6GJQsqaUBKTNV-4" value="Yes" style="rounded=0;html=1;jettySize=auto;orthogonalLoop=1;fontSize=11;endArrow=block;endFill=0;endSize=8;strokeWidth=1;shadow=0;labelBackgroundColor=none;edgeStyle=orthogonalEdgeStyle;entryX=0.5;entryY=0;entryDx=0;entryDy=0;" parent="WIyWlLk6GJQsqaUBKTNV-1" source="WIyWlLk6GJQsqaUBKTNV-6" target="tzLoK1x5mwkpw5GYzdVN-0" edge="1">
          <mxGeometry y="20" relative="1" as="geometry">
            <mxPoint as="offset" />
            <mxPoint x="120" y="490" as="targetPoint" />
          </mxGeometry>
        </mxCell>
        <mxCell id="WIyWlLk6GJQsqaUBKTNV-5" value="No" style="edgeStyle=orthogonalEdgeStyle;rounded=0;html=1;jettySize=auto;orthogonalLoop=1;fontSize=11;endArrow=block;endFill=0;endSize=8;strokeWidth=1;shadow=0;labelBackgroundColor=none;entryX=0.5;entryY=0;entryDx=0;entryDy=0;" parent="WIyWlLk6GJQsqaUBKTNV-1" source="WIyWlLk6GJQsqaUBKTNV-6" target="tzLoK1x5mwkpw5GYzdVN-6" edge="1">
          <mxGeometry y="10" relative="1" as="geometry">
            <mxPoint as="offset" />
            <mxPoint x="680" y="310" as="targetPoint" />
          </mxGeometry>
        </mxCell>
        <mxCell id="WIyWlLk6GJQsqaUBKTNV-6" value="check" style="rhombus;whiteSpace=wrap;html=1;shadow=0;fontFamily=Helvetica;fontSize=12;align=center;strokeWidth=1;spacing=6;spacingTop=-4;" parent="WIyWlLk6GJQsqaUBKTNV-1" vertex="1">
          <mxGeometry x="230" y="130" width="100" height="80" as="geometry" />
        </mxCell>
        <mxCell id="tzLoK1x5mwkpw5GYzdVN-5" value="" style="edgeStyle=orthogonalEdgeStyle;rounded=0;orthogonalLoop=1;jettySize=auto;html=1;exitX=1;exitY=0.5;exitDx=0;exitDy=0;" edge="1" parent="WIyWlLk6GJQsqaUBKTNV-1" source="tzLoK1x5mwkpw5GYzdVN-2" target="tzLoK1x5mwkpw5GYzdVN-4">
          <mxGeometry relative="1" as="geometry" />
        </mxCell>
        <mxCell id="tzLoK1x5mwkpw5GYzdVN-3" value="" style="edgeStyle=orthogonalEdgeStyle;rounded=0;orthogonalLoop=1;jettySize=auto;html=1;" edge="1" parent="WIyWlLk6GJQsqaUBKTNV-1" source="tzLoK1x5mwkpw5GYzdVN-0" target="tzLoK1x5mwkpw5GYzdVN-2">
          <mxGeometry relative="1" as="geometry" />
        </mxCell>
        <mxCell id="tzLoK1x5mwkpw5GYzdVN-0" value="generating token" style="rounded=1;whiteSpace=wrap;html=1;fontSize=12;glass=0;strokeWidth=1;shadow=0;" vertex="1" parent="WIyWlLk6GJQsqaUBKTNV-1">
          <mxGeometry x="60" y="310" width="120" height="40" as="geometry" />
        </mxCell>
        <mxCell id="tzLoK1x5mwkpw5GYzdVN-2" value="server login" style="rounded=1;whiteSpace=wrap;html=1;fontSize=12;glass=0;strokeWidth=1;shadow=0;" vertex="1" parent="WIyWlLk6GJQsqaUBKTNV-1">
          <mxGeometry x="60" y="450" width="120" height="40" as="geometry" />
        </mxCell>
        <mxCell id="tzLoK1x5mwkpw5GYzdVN-4" value="database acc&lt;span style=&quot;background-color: transparent; color: light-dark(rgb(0, 0, 0), rgb(255, 255, 255));&quot;&gt;ess&lt;/span&gt;" style="rounded=1;whiteSpace=wrap;html=1;fontSize=12;glass=0;strokeWidth=1;shadow=0;" vertex="1" parent="WIyWlLk6GJQsqaUBKTNV-1">
          <mxGeometry x="60" y="585" width="120" height="40" as="geometry" />
        </mxCell>
        <mxCell id="tzLoK1x5mwkpw5GYzdVN-19" value="" style="edgeStyle=orthogonalEdgeStyle;rounded=0;orthogonalLoop=1;jettySize=auto;html=1;" edge="1" parent="WIyWlLk6GJQsqaUBKTNV-1" source="tzLoK1x5mwkpw5GYzdVN-6" target="tzLoK1x5mwkpw5GYzdVN-18">
          <mxGeometry relative="1" as="geometry" />
        </mxCell>
        <mxCell id="tzLoK1x5mwkpw5GYzdVN-6" value="status_code = 400" style="rounded=1;whiteSpace=wrap;html=1;fontSize=12;glass=0;strokeWidth=1;shadow=0;" vertex="1" parent="WIyWlLk6GJQsqaUBKTNV-1">
          <mxGeometry x="340" y="310" width="120" height="40" as="geometry" />
        </mxCell>
        <mxCell id="tzLoK1x5mwkpw5GYzdVN-21" value="" style="edgeStyle=orthogonalEdgeStyle;rounded=0;orthogonalLoop=1;jettySize=auto;html=1;" edge="1" parent="WIyWlLk6GJQsqaUBKTNV-1" source="tzLoK1x5mwkpw5GYzdVN-18" target="tzLoK1x5mwkpw5GYzdVN-20">
          <mxGeometry relative="1" as="geometry" />
        </mxCell>
        <mxCell id="tzLoK1x5mwkpw5GYzdVN-25" value="" style="edgeStyle=orthogonalEdgeStyle;rounded=0;orthogonalLoop=1;jettySize=auto;html=1;" edge="1" parent="WIyWlLk6GJQsqaUBKTNV-1" source="tzLoK1x5mwkpw5GYzdVN-18" target="tzLoK1x5mwkpw5GYzdVN-24">
          <mxGeometry relative="1" as="geometry" />
        </mxCell>
        <mxCell id="tzLoK1x5mwkpw5GYzdVN-18" value="repeat" style="rhombus;whiteSpace=wrap;html=1;rounded=1;glass=0;strokeWidth=1;shadow=0;" vertex="1" parent="WIyWlLk6GJQsqaUBKTNV-1">
          <mxGeometry x="360" y="410" width="80" height="80" as="geometry" />
        </mxCell>
        <mxCell id="tzLoK1x5mwkpw5GYzdVN-23" value="" style="edgeStyle=orthogonalEdgeStyle;rounded=0;orthogonalLoop=1;jettySize=auto;html=1;" edge="1" parent="WIyWlLk6GJQsqaUBKTNV-1" source="tzLoK1x5mwkpw5GYzdVN-20" target="tzLoK1x5mwkpw5GYzdVN-22">
          <mxGeometry relative="1" as="geometry" />
        </mxCell>
        <mxCell id="tzLoK1x5mwkpw5GYzdVN-20" value="status_code = 500" style="whiteSpace=wrap;html=1;rounded=1;glass=0;strokeWidth=1;shadow=0;" vertex="1" parent="WIyWlLk6GJQsqaUBKTNV-1">
          <mxGeometry x="500" y="420" width="120" height="60" as="geometry" />
        </mxCell>
        <mxCell id="tzLoK1x5mwkpw5GYzdVN-22" value="block" style="whiteSpace=wrap;html=1;rounded=1;glass=0;strokeWidth=1;shadow=0;" vertex="1" parent="WIyWlLk6GJQsqaUBKTNV-1">
          <mxGeometry x="700" y="420" width="80" height="60" as="geometry" />
        </mxCell>
        <mxCell id="tzLoK1x5mwkpw5GYzdVN-24" value="generating token" style="whiteSpace=wrap;html=1;rounded=1;glass=0;strokeWidth=1;shadow=0;" vertex="1" parent="WIyWlLk6GJQsqaUBKTNV-1">
          <mxGeometry x="340" y="580" width="120" height="60" as="geometry" />
        </mxCell>
        <mxCell id="tzLoK1x5mwkpw5GYzdVN-26" value="" style="edgeStyle=orthogonalEdgeStyle;rounded=0;orthogonalLoop=1;jettySize=auto;html=1;exitX=1;exitY=0.5;exitDx=0;exitDy=0;" edge="1" parent="WIyWlLk6GJQsqaUBKTNV-1" source="tzLoK1x5mwkpw5GYzdVN-28" target="tzLoK1x5mwkpw5GYzdVN-29">
          <mxGeometry relative="1" as="geometry" />
        </mxCell>
        <mxCell id="tzLoK1x5mwkpw5GYzdVN-27" value="" style="edgeStyle=orthogonalEdgeStyle;rounded=0;orthogonalLoop=1;jettySize=auto;html=1;" edge="1" parent="WIyWlLk6GJQsqaUBKTNV-1" target="tzLoK1x5mwkpw5GYzdVN-28">
          <mxGeometry relative="1" as="geometry">
            <mxPoint x="400" y="640" as="sourcePoint" />
          </mxGeometry>
        </mxCell>
        <mxCell id="tzLoK1x5mwkpw5GYzdVN-28" value="server login" style="rounded=1;whiteSpace=wrap;html=1;fontSize=12;glass=0;strokeWidth=1;shadow=0;" vertex="1" parent="WIyWlLk6GJQsqaUBKTNV-1">
          <mxGeometry x="340" y="740" width="120" height="40" as="geometry" />
        </mxCell>
        <mxCell id="tzLoK1x5mwkpw5GYzdVN-29" value="database acc&lt;span style=&quot;background-color: transparent; color: light-dark(rgb(0, 0, 0), rgb(255, 255, 255));&quot;&gt;ess&lt;/span&gt;" style="rounded=1;whiteSpace=wrap;html=1;fontSize=12;glass=0;strokeWidth=1;shadow=0;" vertex="1" parent="WIyWlLk6GJQsqaUBKTNV-1">
          <mxGeometry x="520" y="740" width="120" height="40" as="geometry" />
        </mxCell>
      </root>
    </mxGraphModel>
  </diagram>
</mxfile>
